<?xml version="1.0" encoding="utf-8"?>
<!-- Generator: Adobe Illustrator 23.0.2, SVG Export Plug-In . SVG Version: 6.00 Build 0)  -->
<svg version="1.1" id="Layer_1" xmlns="http://www.w3.org/2000/svg" xmlns:xlink="http://www.w3.org/1999/xlink" x="0px" y="0px"
	 viewBox="0 0 512 512" style="enable-background:new 0 0 512 512;" xml:space="preserve">
<style type="text/css">
	.st0{fill:#FFFFFF;}
</style>
<path class="st0" d="M441.3,380.9L311.2,198.7c-1.2-1.6-1.8-3.6-1.8-5.5v-100l0,0l0.4-11.7c0.2-5.4-4.1-9.9-9.5-9.9h-88.5
	c-5.4,0-9.7,4.5-9.5,9.9l0.4,11.7l0,0v99.9c0,2-0.6,3.9-1.8,5.5L70.7,380.9c-8.9,12.4-8.9,27.2,0,39.6c8.8,12.4,24.7,19.8,42.4,19.8
	H399c17.7,0,33.5-7.4,42.4-19.8C450.2,408.2,450.1,393.3,441.3,380.9z M229.3,198.9v-96.2c0-5.3,4.3-9.5,9.5-9.5h34.3
	c5.3,0,9.5,4.3,9.5,9.5v96.2c0,2,0.6,3.9,1.8,5.5l34.2,47.9c4.5,6.3,0,15.1-7.8,15.1H201.1c-7.8,0-12.3-8.8-7.8-15.1l34.2-47.9
	C228.7,202.9,229.3,200.9,229.3,198.9z M418.2,409.8c-4,5.6-11.2,9-19.3,9H113.1c-8,0-15.2-3.4-19.3-9c-4-5.6-4-12.4,0-18l70.4-98.6
	c1.8-2.5,4.7-4,7.8-4h168c3.1,0,6,1.5,7.8,4l70.4,98.6C422.2,397.4,422.2,404.1,418.2,409.8z"/>
</svg>
