<?xml version="1.0" encoding="utf-8"?>
<!-- Generator: Adobe Illustrator 23.0.2, SVG Export Plug-In . SVG Version: 6.00 Build 0)  -->
<svg version="1.1" id="Layer_1" xmlns="http://www.w3.org/2000/svg" xmlns:xlink="http://www.w3.org/1999/xlink" x="0px" y="0px"
	 viewBox="0 0 24 24" style="enable-background:new 0 0 24 24;" xml:space="preserve">
<style type="text/css">
	.st0{fill:none;}
	.st1{fill:#FFFFFF;}
</style>
<path class="st0" d="M0,0h24v24H0V0z"/>
<path class="st1" d="M16.5,13c-1.2,0-3.1,0.3-4.5,1c-1.4-0.7-3.3-1-4.5-1C5.3,13,1,14.1,1,16.2V19h22v-2.8C23,14.1,18.7,13,16.5,13z
	 M12.5,17.5h-10v-1.2c0-0.5,2.6-1.8,5-1.8s5,1.2,5,1.8V17.5z M21.5,17.5H14v-1.2c0-0.5-0.2-0.9-0.5-1.2c0.9-0.3,2-0.5,3-0.5
	c2.4,0,5,1.2,5,1.8V17.5z M7.5,12c1.9,0,3.5-1.6,3.5-3.5S9.4,5,7.5,5S4,6.6,4,8.5S5.6,12,7.5,12z M7.5,6.5c1.1,0,2,0.9,2,2
	s-0.9,2-2,2s-2-0.9-2-2S6.4,6.5,7.5,6.5z M16.5,12c1.9,0,3.5-1.6,3.5-3.5S18.4,5,16.5,5S13,6.6,13,8.5S14.6,12,16.5,12z M16.5,6.5
	c1.1,0,2,0.9,2,2s-0.9,2-2,2s-2-0.9-2-2S15.4,6.5,16.5,6.5z"/>
</svg>
